<mxfile host="app.diagrams.net" modified="2020-12-08T08:11:48.067Z" agent="5.0 (Macintosh; Intel Mac OS X 10_15_7) AppleWebKit/537.36 (KHTML, like Gecko) Chrome/87.0.4280.67 Safari/537.36" etag="eUcMZ1ibRhXQ3_ed4rnN" version="13.9.7" type="github">
  <diagram id="dL0zQ3uStkaDE3v_5Zsv" name="Page-1">
    <mxGraphModel dx="2521" dy="2260" grid="1" gridSize="10" guides="1" tooltips="1" connect="1" arrows="1" fold="1" page="1" pageScale="1" pageWidth="827" pageHeight="1169" math="0" shadow="0">
      <root>
        <mxCell id="0" />
        <mxCell id="1" parent="0" />
        <mxCell id="R2onIlyckB5ac0q-NjIR-21" value="" style="shape=cube;whiteSpace=wrap;html=1;boundedLbl=1;backgroundOutline=1;darkOpacity=0.05;darkOpacity2=0.1;size=36;" vertex="1" parent="1">
          <mxGeometry x="180" y="-190" width="410" height="650" as="geometry" />
        </mxCell>
        <mxCell id="R2onIlyckB5ac0q-NjIR-28" style="edgeStyle=orthogonalEdgeStyle;rounded=0;orthogonalLoop=1;jettySize=auto;html=1;exitX=0.96;exitY=0.7;exitDx=0;exitDy=0;exitPerimeter=0;entryX=0.25;entryY=0;entryDx=0;entryDy=0;" edge="1" parent="1" source="R2onIlyckB5ac0q-NjIR-26" target="R2onIlyckB5ac0q-NjIR-9">
          <mxGeometry relative="1" as="geometry" />
        </mxCell>
        <mxCell id="R2onIlyckB5ac0q-NjIR-26" value="" style="ellipse;shape=cloud;whiteSpace=wrap;html=1;" vertex="1" parent="1">
          <mxGeometry x="-160" y="-40" width="270" height="170" as="geometry" />
        </mxCell>
        <mxCell id="R2onIlyckB5ac0q-NjIR-30" style="edgeStyle=orthogonalEdgeStyle;rounded=0;orthogonalLoop=1;jettySize=auto;html=1;exitX=0;exitY=0;exitDx=200;exitDy=65;exitPerimeter=0;entryX=0.07;entryY=0.4;entryDx=0;entryDy=0;entryPerimeter=0;" edge="1" parent="1" source="R2onIlyckB5ac0q-NjIR-25" target="R2onIlyckB5ac0q-NjIR-26">
          <mxGeometry relative="1" as="geometry" />
        </mxCell>
        <mxCell id="R2onIlyckB5ac0q-NjIR-25" value="andorid" style="shape=cube;whiteSpace=wrap;html=1;boundedLbl=1;backgroundOutline=1;darkOpacity=0.05;darkOpacity2=0.1;" vertex="1" parent="1">
          <mxGeometry x="-400" width="200" height="110" as="geometry" />
        </mxCell>
        <mxCell id="R2onIlyckB5ac0q-NjIR-31" style="edgeStyle=orthogonalEdgeStyle;rounded=0;orthogonalLoop=1;jettySize=auto;html=1;exitX=0;exitY=0;exitDx=200;exitDy=65;exitPerimeter=0;entryX=0;entryY=0.5;entryDx=0;entryDy=0;entryPerimeter=0;" edge="1" parent="1" source="R2onIlyckB5ac0q-NjIR-24" target="R2onIlyckB5ac0q-NjIR-27">
          <mxGeometry relative="1" as="geometry" />
        </mxCell>
        <mxCell id="R2onIlyckB5ac0q-NjIR-24" value="ipc" style="shape=cube;whiteSpace=wrap;html=1;boundedLbl=1;backgroundOutline=1;darkOpacity=0.05;darkOpacity2=0.1;" vertex="1" parent="1">
          <mxGeometry x="-400" y="240" width="200" height="110" as="geometry" />
        </mxCell>
        <mxCell id="R2onIlyckB5ac0q-NjIR-32" style="edgeStyle=orthogonalEdgeStyle;rounded=0;orthogonalLoop=1;jettySize=auto;html=1;exitX=0.875;exitY=0.5;exitDx=0;exitDy=0;exitPerimeter=0;" edge="1" parent="1" source="R2onIlyckB5ac0q-NjIR-19" target="R2onIlyckB5ac0q-NjIR-20">
          <mxGeometry relative="1" as="geometry" />
        </mxCell>
        <mxCell id="R2onIlyckB5ac0q-NjIR-19" value="" style="ellipse;shape=cloud;whiteSpace=wrap;html=1;" vertex="1" parent="1">
          <mxGeometry x="620" y="-90" width="240" height="540" as="geometry" />
        </mxCell>
        <mxCell id="R2onIlyckB5ac0q-NjIR-33" style="edgeStyle=orthogonalEdgeStyle;rounded=0;orthogonalLoop=1;jettySize=auto;html=1;exitX=1;exitY=0.5;exitDx=0;exitDy=0;entryX=0;entryY=0.5;entryDx=0;entryDy=0;" edge="1" parent="1" source="R2onIlyckB5ac0q-NjIR-9" target="R2onIlyckB5ac0q-NjIR-10">
          <mxGeometry relative="1" as="geometry" />
        </mxCell>
        <mxCell id="R2onIlyckB5ac0q-NjIR-34" style="edgeStyle=orthogonalEdgeStyle;rounded=0;orthogonalLoop=1;jettySize=auto;html=1;" edge="1" parent="1" source="R2onIlyckB5ac0q-NjIR-9" target="R2onIlyckB5ac0q-NjIR-11">
          <mxGeometry relative="1" as="geometry" />
        </mxCell>
        <mxCell id="R2onIlyckB5ac0q-NjIR-9" value="livesrc" style="rounded=1;whiteSpace=wrap;html=1;" vertex="1" parent="1">
          <mxGeometry x="230" y="210" width="120" height="60" as="geometry" />
        </mxCell>
        <mxCell id="R2onIlyckB5ac0q-NjIR-35" style="edgeStyle=orthogonalEdgeStyle;rounded=0;orthogonalLoop=1;jettySize=auto;html=1;exitX=1;exitY=0.5;exitDx=0;exitDy=0;entryX=0.16;entryY=0.55;entryDx=0;entryDy=0;entryPerimeter=0;" edge="1" parent="1" source="R2onIlyckB5ac0q-NjIR-10" target="R2onIlyckB5ac0q-NjIR-19">
          <mxGeometry relative="1" as="geometry" />
        </mxCell>
        <mxCell id="R2onIlyckB5ac0q-NjIR-10" value="livecam" style="rounded=1;whiteSpace=wrap;html=1;" vertex="1" parent="1">
          <mxGeometry x="414" y="110" width="120" height="60" as="geometry" />
        </mxCell>
        <mxCell id="R2onIlyckB5ac0q-NjIR-37" style="edgeStyle=orthogonalEdgeStyle;rounded=0;orthogonalLoop=1;jettySize=auto;html=1;exitX=0.5;exitY=1;exitDx=0;exitDy=0;entryX=0;entryY=0;entryDx=25;entryDy=0;entryPerimeter=0;" edge="1" parent="1" source="R2onIlyckB5ac0q-NjIR-11" target="R2onIlyckB5ac0q-NjIR-36">
          <mxGeometry relative="1" as="geometry" />
        </mxCell>
        <mxCell id="R2onIlyckB5ac0q-NjIR-11" value="liverec" style="rounded=1;whiteSpace=wrap;html=1;" vertex="1" parent="1">
          <mxGeometry x="414" y="210" width="120" height="60" as="geometry" />
        </mxCell>
        <mxCell id="R2onIlyckB5ac0q-NjIR-12" value="carrier-server" style="rounded=1;whiteSpace=wrap;html=1;" vertex="1" parent="1">
          <mxGeometry x="-80" y="20" width="120" height="60" as="geometry" />
        </mxCell>
        <mxCell id="R2onIlyckB5ac0q-NjIR-13" value="http-server" style="rounded=1;whiteSpace=wrap;html=1;" vertex="1" parent="1">
          <mxGeometry x="413" y="10" width="120" height="60" as="geometry" />
        </mxCell>
        <mxCell id="R2onIlyckB5ac0q-NjIR-14" value="rtmp-server" style="rounded=1;whiteSpace=wrap;html=1;" vertex="1" parent="1">
          <mxGeometry x="690" y="80" width="120" height="60" as="geometry" />
        </mxCell>
        <mxCell id="R2onIlyckB5ac0q-NjIR-15" value="webrtc-server" style="rounded=1;whiteSpace=wrap;html=1;" vertex="1" parent="1">
          <mxGeometry x="690" y="240" width="120" height="60" as="geometry" />
        </mxCell>
        <mxCell id="R2onIlyckB5ac0q-NjIR-17" value="client&lt;br&gt;" style="shape=umlActor;verticalLabelPosition=bottom;verticalAlign=top;html=1;outlineConnect=0;" vertex="1" parent="1">
          <mxGeometry x="1070" y="120" width="40" height="80" as="geometry" />
        </mxCell>
        <mxCell id="R2onIlyckB5ac0q-NjIR-20" value="pc" style="ellipse;whiteSpace=wrap;html=1;" vertex="1" parent="1">
          <mxGeometry x="910" y="140" width="120" height="80" as="geometry" />
        </mxCell>
        <mxCell id="R2onIlyckB5ac0q-NjIR-29" style="edgeStyle=orthogonalEdgeStyle;rounded=0;orthogonalLoop=1;jettySize=auto;html=1;exitX=0;exitY=0;exitDx=80;exitDy=65;exitPerimeter=0;entryX=0.5;entryY=1;entryDx=0;entryDy=0;" edge="1" parent="1" source="R2onIlyckB5ac0q-NjIR-27" target="R2onIlyckB5ac0q-NjIR-9">
          <mxGeometry relative="1" as="geometry" />
        </mxCell>
        <mxCell id="R2onIlyckB5ac0q-NjIR-27" value="config" style="shape=note;whiteSpace=wrap;html=1;backgroundOutline=1;darkOpacity=0.05;" vertex="1" parent="1">
          <mxGeometry x="-40" y="250" width="80" height="100" as="geometry" />
        </mxCell>
        <mxCell id="R2onIlyckB5ac0q-NjIR-36" value="kd_data" style="shape=note;whiteSpace=wrap;html=1;backgroundOutline=1;darkOpacity=0.05;" vertex="1" parent="1">
          <mxGeometry x="434" y="340" width="80" height="100" as="geometry" />
        </mxCell>
      </root>
    </mxGraphModel>
  </diagram>
</mxfile>
